<svg width="584" height="112" viewBox="0 0 584 112" fill="none" xmlns="http://www.w3.org/2000/svg">
<path d="M12.0151 34.352L6.18713 34.164V24.2H22.3551V90H12.0151V34.352ZM47.5919 45.538V90H37.2519V24.2H47.5919L73.0659 68.38V24.2H83.4999V90H73.0659L47.5919 45.538ZM108.729 45.538V90H98.3886V24.2H108.729L134.203 68.38V24.2H144.637V90H134.203L108.729 45.538ZM166.763 71.67C167.077 74.4273 168.205 76.652 170.147 78.344C172.09 80.036 174.628 80.882 177.761 80.882C180.393 80.882 182.524 80.4433 184.153 79.566C185.845 78.6887 187.067 77.6233 187.819 76.37C188.571 75.1167 188.947 73.8947 188.947 72.704C188.947 69.9467 188.258 67.6593 186.879 65.842C185.563 63.962 183.903 62.4893 181.897 61.424C179.955 60.296 177.291 59.0113 173.907 57.57C170.21 56.0033 167.265 54.5933 165.071 53.34C162.941 52.024 161.092 50.2693 159.525 48.076C158.021 45.82 157.269 42.9687 157.269 39.522C157.269 36.7647 158.053 34.164 159.619 31.72C161.186 29.2133 163.567 27.1767 166.763 25.61C169.959 24.0433 173.876 23.26 178.513 23.26C181.584 23.26 184.122 23.4793 186.127 23.918C188.133 24.3567 190.169 25.0773 192.237 26.08L188.947 35.856C186.691 35.104 184.843 34.5713 183.401 34.258C182.023 33.9447 180.425 33.788 178.607 33.788C175.035 33.788 172.403 34.4147 170.711 35.668C169.019 36.9213 168.267 38.5193 168.455 40.462C168.643 42.0287 169.583 43.376 171.275 44.504C173.03 45.632 175.725 47.0107 179.359 48.64C183.621 50.52 187.161 52.306 189.981 53.998C192.801 55.69 195.214 58.0087 197.219 60.954C199.287 63.8993 200.321 67.5027 200.321 71.764C200.321 77.3413 198.473 81.9473 194.775 85.582C191.078 89.2167 185.438 91.034 177.855 91.034C173.218 91.034 169.239 90.188 165.917 88.496C162.659 86.7413 160.152 84.5167 158.397 81.822C156.705 79.0647 155.797 76.2133 155.671 73.268L166.763 71.67ZM214.565 34.634H201.029V24.2H238.817V34.634H224.905V90H214.565V34.634ZM270.246 71.67H256.522V90H246.182V24.2H268.46C272.596 24.2 276.042 25.234 278.8 27.302C281.557 29.3073 283.594 32.002 284.91 35.386C286.288 38.77 286.978 42.4987 286.978 46.572C286.978 49.6427 286.852 52.306 286.602 54.562C286.351 56.818 285.693 59.168 284.628 61.612C283.625 64.056 281.996 66.2493 279.74 68.192L287.072 90H276.544L270.246 71.67ZM266.016 61.8C269.086 61.8 271.342 61.0167 272.784 59.45C274.288 57.8207 275.196 55.972 275.51 53.904C275.886 51.836 276.074 49.392 276.074 46.572C276.074 43.2507 275.604 40.744 274.664 39.052C273.724 37.2973 272.408 36.138 270.716 35.574C269.024 34.9473 266.83 34.634 264.136 34.634H256.522V61.8H266.016ZM299.24 24.2H330.636V34.54H309.58V51.178H322.458L319.544 61.048H309.58V80.6H330.448V90H299.24V24.2ZM368.034 72.798H352.9L349.234 90H337.578L352.994 24.2H367.564L384.202 90H371.888L368.034 72.798ZM355.344 61.8H365.59L360.232 41.496L355.344 61.8ZM432.55 55.22L421.552 90H413.656L402.846 55.314V90H392.506V24.2H402.846L417.604 67.722L432.55 24.2H442.89V90H432.55V55.22ZM460.029 85.3C460.029 86.5533 459.559 87.65 458.619 88.59C457.679 89.53 456.551 90 455.235 90C453.982 90 452.885 89.53 451.945 88.59C451.005 87.65 450.535 86.5533 450.535 85.3C450.535 83.984 451.005 82.856 451.945 81.916C452.885 80.976 453.982 80.506 455.235 80.506C456.551 80.506 457.679 80.976 458.619 81.916C459.559 82.856 460.029 83.984 460.029 85.3ZM494.3 24.2C500.253 24.2 504.671 26.0173 507.554 29.652C510.499 33.2867 511.972 38.1747 511.972 44.316C511.972 48.076 511.596 51.4913 510.844 54.562C510.154 57.6327 508.494 60.296 505.862 62.552C503.292 64.808 499.47 65.936 494.394 65.936H475.406V90H471.176V24.2H494.3ZM494.394 61.8C498.342 61.8 501.287 60.8287 503.23 58.886C505.235 56.9433 506.488 54.75 506.99 52.306C507.491 49.862 507.742 47.1987 507.742 44.316C507.742 39.1147 506.614 35.1353 504.358 32.378C502.102 29.6207 498.843 28.242 494.582 28.242H475.406V61.8H494.394ZM525.026 46.666C528.159 43.5953 532.295 42.06 537.434 42.06C539.189 42.06 541.539 42.342 544.484 42.906L543.356 46.854C541.288 46.2273 539.22 45.914 537.152 45.914C533.893 45.914 531.073 46.5407 528.692 47.794C526.373 49.0473 525.214 50.7707 525.214 52.964V90H520.984V42.906H525.214L525.026 46.666ZM545.188 60.296C545.188 54.3427 546.692 49.7993 549.7 46.666C552.77 43.47 557.157 41.872 562.86 41.872C568.312 41.872 572.573 43.5327 575.644 46.854C578.714 50.1127 580.25 54.5933 580.25 60.296V72.704C580.25 77.968 578.808 82.3233 575.926 85.77C573.043 89.2167 568.688 90.94 562.86 90.94C557.032 90.94 552.614 89.2167 549.606 85.77C546.66 82.2607 545.188 77.9053 545.188 72.704V60.296ZM549.418 73.362C549.418 77.3727 550.577 80.694 552.896 83.326C555.277 85.8953 558.598 87.18 562.86 87.18C567.121 87.18 570.38 85.8953 572.636 83.326C574.892 80.7567 576.02 77.4353 576.02 73.362V60.202C576.02 55.314 574.798 51.6793 572.354 49.298C569.972 46.9167 566.808 45.726 562.86 45.726C558.786 45.726 555.528 46.9167 553.084 49.298C550.64 51.6167 549.418 55.2513 549.418 60.202V73.362Z" fill="#001959"/>
</svg>
